<?xml version="1.0" encoding="UTF-8"?>
<svg id="Layer_2" data-name="Layer 2" xmlns="http://www.w3.org/2000/svg" viewBox="0 0 343.52 343.52">
  <defs>
    <style>
      .cls-1 {
        fill: #152242;
      }

      .cls-1, .cls-2 {
        stroke-width: 0px;
      }

      .cls-2 {
        fill: #fff;
      }
    </style>
  </defs>
  <g id="Layer_2-2" data-name="Layer 2">
    <circle class="cls-1" cx="171.76" cy="171.76" r="171.76"/>
    <g>
      <path class="cls-2" d="m86.07,82.89s129.57-.05,129.57-.05c36.84,0,66.69,29.86,66.69,66.69,0,18.42-7.46,35.09-19.54,47.15-12.06,12.08-28.73,19.54-47.15,19.54h-37.8s-.05-.02-.05-.05v-30.35s.02-.05.05-.05h39.82c11.17,0,21.28-4.53,28.61-11.85,5.54-5.54,9.48-12.69,11.07-20.68,2.26-11.37.08-21.9-5.29-30.2-16.22-25.11-66.43-18.81-74.63-17.99-25.19,2.52-42.42,8.09-54.44,14-.21.1-.43.21-.47.23-15.69,7.78-27.78,16.66-36.44,24.03v-60.44Z"/>
      <path class="cls-2" d="m86.11,260.68s18.76-34.03,34.56-56.87c9.9-14.31,25.16-33.66,48.06-54.27-2.63,14.81-4.95,30.52-6.81,47.07-2.55,22.7-3.9,44.12-4.41,64.04-46.5.03-71.41.05-71.41.05h0Z"/>
      <path class="cls-2" d="m214.4,129.7c-14.78,2.34-34.08,7.09-54.87,17.22-38.6,18.81-61.86,46.14-73.41,62.08v-29.64c8.44-9.84,22.26-23.37,42.57-34.05,36.33-19.1,71.01-17.28,85.71-15.62Z"/>
      <rect class="cls-2" x="207.99" y="233.84" width="42.46" height="16.02"/>
    </g>
  </g>
</svg>