<?xml version="1.0" encoding="UTF-8"?>
<svg id="Icon" xmlns="http://www.w3.org/2000/svg" xmlns:xlink="http://www.w3.org/1999/xlink" viewBox="0 0 512 512">
  <defs>
    <style>
      .cls-1 {
        fill: #152242;
      }

      .cls-1, .cls-2, .cls-3, .cls-4 {
        stroke-width: 0px;
      }

      .cls-2 {
        fill: none;
      }

      .cls-5 {
        clip-path: url(#clippath);
      }

      .cls-3 {
        fill: #262552;
      }

      .cls-4 {
        fill: #c6afe3;
      }
    </style>
    <clipPath id="clippath">
      <circle class="cls-2" cx="256" cy="256" r="256"/>
    </clipPath>
  </defs>
  <g class="cls-5">
    <rect class="cls-1" width="512" height="512"/>
    <rect class="cls-3" width="512" height="512"/>
    <g>
      <path class="cls-4" d="m215.57,328.27l-.88,74.14h-94.74v-37.17l87.37-43.02c2.65,2.16,5.41,4.16,8.26,6.04Z"/>
      <path class="cls-4" d="m354.43,313.52c-.3.32-.61.61-.91.93-.05.02-.09.02-.14.04.35-.32.69-.63,1.05-.97Z"/>
      <path class="cls-4" d="m276.06,147.67c-49.2,0-89.07,39.89-89.07,89.07s39.87,89.07,89.07,89.07,89.07-39.87,89.07-89.07-39.87-89.07-89.07-89.07Zm0,155.94c-36.92,0-66.85-29.95-66.85-66.87s29.93-66.85,66.85-66.85,66.87,29.93,66.87,66.85-29.95,66.87-66.87,66.87Z"/>
      <path class="cls-4" d="m406.88,280.48c-19.27,24.24-44.56,31.79-53.36,33.97.3-.32.61-.61.91-.93,17.09-17.46,28.4-40.57,30.84-66.29.32-3.46.49-6.96.49-10.49,0-60.6-49.11-109.71-109.71-109.71s-109.71,49.11-109.71,109.71c0,5.74.44,11.38,1.3,16.88l-47.71,30.04V109.59h192.42c10.47.12,43.19,1.86,73.14,26.01,8.75,7.06,35.64,29.47,41.15,68.87,1.35,9.63,4.88,44.98-19.78,76Z"/>
      <path class="cls-4" d="m354.43,313.52c-.3.32-.61.61-.91.93-.05.02-.09.02-.14.04.35-.32.69-.63,1.05-.97Z"/>
      <path class="cls-4" d="m232.97,222.81c-.77,0-1.55-.13-2.31-.4-3.6-1.28-5.48-5.23-4.21-8.83,3.92-11.07,12.3-20.24,23-25.15,1.52-.7,3.09-1.31,4.68-1.83,3.63-1.18,7.53.8,8.72,4.43,1.18,3.63-.8,7.53-4.43,8.72-1.08.35-2.15.77-3.19,1.25-7.32,3.36-13.05,9.63-15.73,17.2-1,2.84-3.67,4.61-6.52,4.61Z"/>
      <rect class="cls-4" x="109.14" y="284.85" width="98.82" height="39.57" rx="8.91" ry="8.91" transform="translate(-131.07 120.09) rotate(-30)"/>
      <rect class="cls-4" x="291.85" y="361.9" width="89.75" height="24.14"/>
    </g>
  </g>
</svg>